<svg width="84" height="70" viewBox="0 0 84 70" fill="none" xmlns="http://www.w3.org/2000/svg">
<g clip-path="url(#clip0_4_9)">
<path d="M41.788 0.138574C41.7837 0.113373 41.7875 0.0874275 41.7988 0.0646153C41.8101 0.0418031 41.8283 0.0233511 41.8507 0.0120176C41.873 0.000684154 41.8984 -0.00292214 41.9229 0.00173921C41.9474 0.00640057 41.9698 0.0190794 41.9868 0.0378781C42.5644 0.681156 43.8908 2.39301 43.4783 4.26005C42.9157 6.80947 42.4697 8.97861 42.4697 8.97861C42.4697 8.97861 42.1231 10.6016 42.3311 11.7685C42.3342 11.788 42.3325 11.808 42.3262 11.8266C42.3199 11.8453 42.3091 11.862 42.2949 11.8753C42.2806 11.8886 42.2634 11.8981 42.2447 11.9028C42.226 11.9075 42.2064 11.9074 42.1878 11.9024C41.9567 11.8349 41.5304 11.6145 41.0925 10.8907C40.561 9.99528 40.3403 8.94195 40.4663 7.90174C40.568 7.00968 40.7817 5.76933 41.2323 4.65692C41.3393 4.40424 41.462 4.1589 41.5997 3.92242C41.7904 3.58479 42.1647 2.56479 41.788 0.138574Z" fill="#FFDE9F"/>
<path d="M52.2752 2.67618C52.1816 2.51413 52.124 2.33292 52.1065 2.14545C52.0834 1.89075 52.1296 1.60879 52.378 1.43465C52.6495 1.24036 52.9557 1.38015 53.2064 1.56733C53.4686 1.7713 53.6689 2.04736 53.7841 2.36343C54.1307 3.29577 54.9082 5.81557 53.9793 8.01432C53.9008 8.19795 53.8222 8.38157 53.7575 8.56993C53.5264 9.25823 52.6414 10.7462 51.8385 12.1299C51.091 13.4176 50.5375 14.5075 50.3434 15.2633C50.2464 15.6436 50.1343 16.0203 50.0038 16.39C49.5533 17.6668 49.4234 19.0393 49.626 20.3811C49.6298 20.4055 49.6261 20.4305 49.6154 20.4527C49.6047 20.4748 49.5875 20.4929 49.5662 20.5046C49.545 20.5162 49.5207 20.5207 49.4968 20.5175C49.4729 20.5142 49.4506 20.5034 49.433 20.4866C49.0263 20.0814 48.2661 19.0045 48.2661 16.6293C48.2661 14.1971 50.2972 10.8931 51.3128 9.39447C51.9267 8.47619 52.3817 7.45625 52.6576 6.37947C53.0008 5.08936 52.8898 3.74476 52.2752 2.67618Z" fill="#FFDE9F"/>
<path d="M63.6947 5.72081C63.2739 5.73348 62.8612 5.84175 62.4861 6.0378C62.1111 6.23386 61.7832 6.51281 61.5261 6.85455C61.1305 7.40389 60.9376 8.0793 60.9819 8.76069C61.0362 9.72383 60.9496 11.7354 59.4291 12.6523C57.7169 13.6854 57.9075 15.1082 58.0127 15.5382C58.0175 15.5569 58.0267 15.5741 58.0394 15.5883C58.0522 15.6025 58.0682 15.6133 58.086 15.6197C58.1037 15.6261 58.1228 15.628 58.1414 15.6252C58.16 15.6223 58.1777 15.6148 58.1929 15.6034C58.3084 15.5228 58.4887 15.3356 58.7706 14.9091C59.0474 14.4879 59.4281 14.1495 59.8739 13.9282C60.4251 13.6541 60.9317 13.2945 61.3759 12.862C61.6738 12.5703 61.8968 12.2078 62.0252 11.8065C62.1742 11.3326 62.3117 10.6159 62.2782 9.59469C62.2713 9.38027 62.2551 9.16821 62.2343 8.95497C62.2031 8.63866 62.18 7.30235 63.7733 5.9305C63.7919 5.91469 63.8053 5.89326 63.8114 5.86925C63.8176 5.84524 63.8162 5.81986 63.8075 5.79668C63.7988 5.77351 63.7833 5.75372 63.763 5.7401C63.7428 5.72649 63.7189 5.71974 63.6947 5.72081Z" fill="#FFDE9F"/>
<path d="M71.9682 10.7201C71.9682 10.7201 71.0971 10.2723 68.9643 11.8171C67.592 12.8095 66.6023 14.2637 66.1672 15.9267C66.0564 16.3553 65.9718 16.7905 65.9141 17.2299C65.7665 18.3487 65.2586 19.3848 64.4711 20.1738C64.0046 20.6406 63.4989 21.0644 62.9599 21.4402C62.595 21.6894 62.2732 21.9993 62.0079 22.3572C61.5157 23.036 60.8988 24.1697 61.1529 25.3567C61.163 25.4117 61.1917 25.4613 61.234 25.4966C61.2763 25.532 61.3295 25.5508 61.384 25.5498C61.57 25.5498 61.8461 25.4314 61.9744 24.8331C62.172 23.9363 63.3215 22.1439 65.1019 21.3893C65.6654 21.1602 66.1709 20.8034 66.5808 20.3456C67.194 19.619 67.6089 18.739 67.7835 17.795C67.9377 17.0243 68.17 16.2723 68.4767 15.5512C68.8259 14.7469 69.3575 14.0397 70.0272 13.4887C71 12.6736 72.6891 11.1454 71.9682 10.7201Z" fill="#FFDE9F"/>
<path d="M83.8937 25.3142C83.8937 25.3142 83.1624 24.6543 80.7211 25.5914C79.147 26.1896 77.8273 27.3349 76.9917 28.8279C76.78 29.2141 76.5924 29.6138 76.4302 30.0244C76.0092 31.0675 75.2601 31.9361 74.302 32.4921C73.7353 32.8221 73.141 33.0996 72.5262 33.3214C72.1114 33.4672 71.7233 33.683 71.3778 33.9599C70.7331 34.4871 69.855 35.423 69.8054 36.6373C69.8016 36.693 69.8172 36.7482 69.8493 36.7933C69.8815 36.8384 69.9281 36.8704 69.981 36.8837C70.1612 36.9287 70.4535 36.8837 70.7296 36.3446C71.1444 35.5284 72.7018 34.0938 74.6105 33.832C75.2122 33.758 75.7898 33.5449 76.2996 33.2088C77.0733 32.6667 77.6935 31.9245 78.0973 31.0575C78.4349 30.3514 78.8442 29.6839 79.3185 29.066C79.8549 28.3782 80.5448 27.8329 81.33 27.4762C82.4761 26.9502 84.4853 25.9136 83.8937 25.3142Z" fill="#FFDE9F"/>
<path d="M74.8207 18.6514C74.3008 19.1822 74.0304 19.9167 73.8964 20.6547C73.7867 21.2471 73.4401 22.3358 72.3656 22.6817C70.8705 23.1639 70.5286 25.0511 70.5921 25.7927C70.6556 26.5343 71.3258 25.2915 71.5961 24.8947C71.8953 24.4564 72.9259 23.8036 73.7116 23.5809C74.6358 23.3179 75.1858 21.4994 75.314 20.8644C75.4296 20.2981 76.6277 18.6135 78.043 18.0366C79.4583 17.4597 78.3133 16.1411 77.1002 16.8981C76.9442 16.9953 76.7929 17.0995 76.6381 17.1919C75.9698 17.5906 75.3583 18.0817 74.8207 18.6514Z" fill="#FFDE9F"/>
<path d="M31.726 2.67618C31.8195 2.51413 31.8771 2.33292 31.8946 2.14545C31.9178 1.89075 31.8715 1.60879 31.6231 1.43465C31.3516 1.24036 31.0397 1.38015 30.7947 1.56733C30.5326 1.7713 30.3323 2.04736 30.2171 2.36343C29.8647 3.29577 29.0929 5.81557 30.0218 8.01432C30.1004 8.19795 30.1789 8.38157 30.2436 8.56993C30.4747 9.25823 31.3597 10.7462 32.1627 12.1299C32.9102 13.4176 33.4636 14.5075 33.6577 15.2633C33.7548 15.6436 33.8668 16.0203 33.9974 16.39C34.4478 17.6668 34.5777 19.0393 34.3752 20.3811C34.3713 20.4055 34.375 20.4305 34.3857 20.4527C34.3965 20.4748 34.4136 20.4929 34.4349 20.5046C34.4562 20.5162 34.4804 20.5207 34.5043 20.5175C34.5282 20.5142 34.5505 20.5034 34.5681 20.4866C34.9748 20.0814 35.735 19.0045 35.735 16.6293C35.735 14.1971 33.7039 10.8931 32.6884 9.39447C32.0744 8.47619 31.6195 7.45625 31.3435 6.37947C31.0004 5.08936 31.1113 3.74476 31.726 2.67618Z" fill="#FFDE9F"/>
<path d="M20.3065 5.72081C20.7273 5.73348 21.1401 5.84175 21.5151 6.0378C21.8901 6.23386 22.218 6.51281 22.4751 6.85455C22.8708 7.40389 23.0636 8.0793 23.0193 8.76069C22.965 9.72383 23.0517 11.7354 24.5721 12.6523C26.2843 13.6854 26.0937 15.1082 25.9886 15.5382C25.9838 15.5569 25.9746 15.5741 25.9618 15.5883C25.949 15.6025 25.9331 15.6133 25.9153 15.6197C25.8975 15.6261 25.8785 15.628 25.8598 15.6252C25.8412 15.6223 25.8235 15.6148 25.8083 15.6034C25.6928 15.5228 25.5126 15.3356 25.2307 14.9091C24.9539 14.4879 24.5732 14.1495 24.1273 13.9282C23.5762 13.6541 23.0696 13.2945 22.6253 12.862C22.3275 12.5703 22.1045 12.2078 21.976 11.8065C21.827 11.3326 21.6895 10.6159 21.723 9.59469C21.7299 9.38027 21.7461 9.16821 21.7669 8.95497C21.7981 8.63866 21.8212 7.30235 20.228 5.9305C20.2093 5.91469 20.196 5.89326 20.1898 5.86925C20.1837 5.84524 20.185 5.81986 20.1937 5.79668C20.2024 5.77351 20.218 5.75372 20.2382 5.7401C20.2585 5.72649 20.2824 5.71974 20.3065 5.72081Z" fill="#FFDE9F"/>
<path d="M12.033 10.7201C12.033 10.7201 12.9041 10.2723 15.0369 11.8171C16.4092 12.8095 17.3989 14.2637 17.834 15.9267C17.9448 16.3553 18.0293 16.7905 18.0871 17.2299C18.2347 18.3487 18.7426 19.3848 19.5301 20.1738C19.9966 20.6406 20.5023 21.0644 21.0413 21.4402C21.4062 21.6894 21.728 21.9993 21.9933 22.3572C22.4855 23.036 23.1024 24.1697 22.8483 25.3567C22.8382 25.4117 22.8094 25.4613 22.7672 25.4966C22.7249 25.532 22.6717 25.5508 22.6172 25.5498C22.4312 25.5498 22.1551 25.4314 22.0268 24.8331C21.8292 23.9363 20.6797 22.1439 18.8993 21.3893C18.3358 21.1602 17.8303 20.8034 17.4204 20.3456C16.8072 19.619 16.3923 18.739 16.2177 17.795C16.0635 17.0243 15.8312 16.2723 15.5245 15.5512C15.1753 14.7469 14.6437 14.0397 13.974 13.4887C13.0012 12.6736 11.3121 11.1454 12.033 10.7201Z" fill="#FFDE9F"/>
<path d="M0.107425 25.3142C0.107425 25.3142 0.838765 24.6543 3.28003 25.5914C4.85418 26.1896 6.17391 27.3349 7.00951 28.8279C7.22316 29.214 7.41264 29.6136 7.57679 30.0244C7.99772 31.0675 8.74686 31.9361 9.70495 32.4921C10.2717 32.8221 10.8659 33.0996 11.4807 33.3214C11.8955 33.4672 12.2836 33.683 12.6292 33.9599C13.2738 34.4871 14.1519 35.423 14.2016 36.6373C14.2053 36.693 14.1898 36.7482 14.1576 36.7933C14.1255 36.8384 14.0789 36.8704 14.026 36.8837C13.8457 36.9287 13.5534 36.8837 13.2773 36.3446C12.8625 35.5284 11.3051 34.0938 9.39647 33.832C8.7947 33.758 8.21716 33.5449 7.70734 33.2088C6.9336 32.6667 6.3134 31.9245 5.90961 31.0575C5.57023 30.3511 5.15894 29.6836 4.68263 29.066C4.14629 28.3782 3.45637 27.8329 2.67116 27.4762C1.52504 26.9502 -0.484117 25.9136 0.107425 25.3142Z" fill="#FFDE9F"/>
<path d="M9.18039 18.6514C9.7003 19.1822 9.97066 19.9167 10.1047 20.6547C10.2144 21.2471 10.561 22.3358 11.6355 22.6817C13.1305 23.1639 13.4725 25.0511 13.409 25.7927C13.3454 26.5343 12.6753 25.2915 12.405 24.8947C12.1058 24.4564 11.0752 23.8036 10.2895 23.5809C9.36525 23.3179 8.8153 21.4994 8.68706 20.8644C8.57152 20.2981 7.37342 18.6135 5.95811 18.0366C4.5428 17.4597 5.68776 16.1411 6.90088 16.8981C7.05685 16.9953 7.20821 17.0995 7.36302 17.1919C8.03126 17.5906 8.64279 18.0817 9.18039 18.6514Z" fill="#FFDE9F"/>
<path d="M44.8428 30.5693C45.6862 30.7956 46.5296 31.0278 47.3672 31.2991C48.2049 31.5704 49.0402 31.863 49.8663 32.1947C50.6924 32.5264 51.5069 32.9055 52.3087 33.3249C53.1197 33.7462 53.9 34.2268 54.6437 34.7631C55.4015 35.3085 56.1113 35.9209 56.7649 36.5934C57.4232 37.2732 58.0163 38.0162 58.536 38.8123C59.0464 39.6024 59.4919 40.4345 59.8682 41.3001C60.2325 42.1469 60.5496 43.0143 60.8179 43.8981C60.886 44.1161 60.9507 44.3352 61.0108 44.5532C61.0709 44.7712 61.1333 44.9892 61.1887 45.2083C61.2442 45.4275 61.3043 45.6443 61.3563 45.8623C61.4083 46.0803 61.4649 46.29 61.5169 46.5304C61.7242 47.4646 61.8472 48.4164 61.8843 49.3737C61.9519 51.2619 61.7435 53.1498 61.2662 54.9748C60.8053 56.7861 60.1236 58.5307 59.2374 60.1672C59.0167 60.583 58.7752 60.987 58.5199 61.3874C58.2645 61.7879 57.9942 62.1729 57.7111 62.5484C57.139 63.3059 56.506 64.0128 55.8187 64.6619C55.65 64.8265 55.4721 64.9794 55.2941 65.1357C55.1162 65.2921 54.9337 65.4414 54.7511 65.5895C54.3791 65.8797 54.0001 66.1605 53.6085 66.4187C52.83 66.9391 52.0134 67.397 51.166 67.7882C49.4899 68.5537 47.7322 69.1155 45.9288 69.4622C45.0392 69.6363 44.145 69.7631 43.2507 69.8579L42.5795 69.9206L41.9209 69.9657C41.7222 69.9799 41.4287 69.9976 41.1953 69.9988C40.962 70 40.717 69.9988 40.4825 69.9905C38.6143 69.9256 36.7654 69.5807 34.9946 68.967C33.1911 68.3483 31.5062 67.4132 30.015 66.2031C28.5188 64.972 27.2622 63.4629 26.3109 61.7547C24.89 59.199 24.1662 56.2983 24.2154 53.3569C24.2646 50.4155 25.085 47.542 26.5905 45.0378C27.5842 43.3682 28.8738 41.904 30.3928 40.7208C31.1525 40.133 31.9649 39.6205 32.819 39.1902C33.6674 38.7673 34.5504 38.4216 35.4579 38.1572C36.3518 37.8926 37.2646 37.7005 38.188 37.5826C38.419 37.5542 38.6443 37.5222 38.8731 37.5044C39.1018 37.4866 39.3352 37.4606 39.557 37.4487L39.9037 37.4262L40.2595 37.4132H40.4374H40.5264H40.6569C40.8048 37.4132 40.9204 37.425 41.044 37.4345C41.9864 37.5137 42.9196 37.6819 43.8319 37.9368C44.7506 38.1895 45.6412 38.5396 46.4892 38.9817C47.3573 39.4342 48.1634 40.0022 48.8865 40.671C49.6194 41.3529 50.2449 42.1469 50.7409 43.025C51.2321 43.8973 51.5931 44.8401 51.8119 45.822C52.0273 46.7971 52.1017 47.7994 52.0326 48.7967C51.9644 49.7829 51.763 50.7545 51.4341 51.6838C51.2737 52.1458 51.083 52.5963 50.8633 53.0319C50.6488 53.4564 50.4136 53.8696 50.1586 54.2699C49.6409 55.0867 49.0231 55.8321 48.3204 56.4876C47.6011 57.1552 46.7819 57.7 45.8942 58.1012C45.0107 58.501 44.0715 58.7561 43.1109 58.857C42.6402 58.904 42.1672 58.921 41.6945 58.9079C41.2273 58.897 40.7613 58.8574 40.2988 58.7894C39.3216 58.66 38.377 58.3429 37.5144 57.8547C37.0628 57.5894 36.6495 57.2608 36.2862 56.8786C35.9215 56.4923 35.614 56.0532 35.3735 55.5754C34.9249 54.6491 34.6878 53.6302 34.6803 52.596C34.6689 52.0964 34.7014 51.5969 34.7774 51.1033L34.8109 50.9114L34.8317 50.8071L34.8513 50.7159C34.8836 50.5761 34.916 50.4517 34.953 50.3285C35.0269 50.0833 35.1112 49.8487 35.206 49.6177C35.3951 49.1541 35.6272 48.7101 35.8992 48.2921C36.1727 47.8675 36.4904 47.4747 36.8466 47.1204C37.5665 46.4049 38.4357 45.8665 39.3884 45.546C39.8528 45.3871 40.3322 45.2787 40.8187 45.2226C41.3111 45.1536 41.8096 45.1425 42.3045 45.1894C42.8539 45.2381 43.3881 45.3992 43.8758 45.6633C44.3963 45.9516 44.831 46.379 45.1339 46.9001C45.4104 47.3842 45.5874 47.9212 45.6539 48.4781C45.7184 48.9919 45.7153 49.5123 45.6446 50.0252C45.6342 50.0916 45.625 50.1544 45.6099 50.2314C45.6014 50.2805 45.5902 50.3292 45.5764 50.3771L45.5441 50.4861C45.5012 50.6216 45.4506 50.7545 45.3927 50.8841C45.2768 51.143 45.1318 51.3871 44.9606 51.6115C44.7831 51.844 44.5742 52.0494 44.3402 52.2216C44.1031 52.393 43.8421 52.5268 43.5661 52.6185C43.3005 52.7058 43.0245 52.7556 42.7458 52.7666C42.4849 52.7759 42.2237 52.7592 41.966 52.7168C41.7002 52.6748 41.4408 52.598 41.1942 52.4882C40.9285 52.372 40.6857 52.207 40.4779 52.0013C40.2676 51.7904 40.1024 51.537 39.9926 51.2573C39.8912 50.993 39.8375 50.712 39.8343 50.428C39.8301 50.1624 39.8647 49.8976 39.9372 49.6426C39.9688 49.5331 40.0074 49.4258 40.0527 49.3215C40.0743 49.2706 40.1058 49.2247 40.1452 49.1866C40.1847 49.1485 40.2313 49.119 40.2822 49.1C40.3331 49.0809 40.3872 49.0727 40.4413 49.0757C40.4954 49.0788 40.5483 49.0931 40.5969 49.1178C40.6717 49.1559 40.7328 49.2174 40.7714 49.2934C40.81 49.3694 40.8242 49.456 40.8118 49.5407C40.7719 49.8025 40.7793 50.0695 40.8337 50.3285C40.8667 50.4825 40.9245 50.6299 41.0047 50.7645C41.0782 50.8823 41.1731 50.9844 41.2843 51.0654C41.4008 51.1459 41.5286 51.2078 41.6633 51.249C41.8167 51.293 41.9744 51.3197 42.1335 51.3284C42.4506 51.3586 42.7702 51.3111 43.0659 51.1898C43.3209 51.071 43.5374 50.8799 43.6897 50.6389C43.7724 50.5099 43.8402 50.3716 43.8919 50.2266C43.9179 50.1546 43.9395 50.081 43.9566 50.0063L43.967 49.9565C43.967 49.9435 43.967 49.9222 43.967 49.9423L43.9763 49.8238C44.0044 49.465 43.9881 49.104 43.9278 48.7493C43.878 48.4348 43.7693 48.133 43.6077 47.8608C43.4631 47.6286 43.2594 47.4414 43.0185 47.3194C42.7414 47.1851 42.4418 47.1066 42.1358 47.0884C41.7777 47.0641 41.418 47.0812 41.0636 47.1394C40.8788 47.1619 40.6997 47.2045 40.5195 47.2424C40.3392 47.2803 40.1728 47.3384 39.9984 47.4C39.3231 47.6365 38.7091 48.0274 38.203 48.5432C37.6902 49.0718 37.2849 49.6996 37.0106 50.3901C36.9411 50.5617 36.8802 50.7369 36.8281 50.9149C36.8015 51.0014 36.7796 51.0903 36.7622 51.1637L36.738 51.2893L36.716 51.4208C36.6608 51.7943 36.638 52.1721 36.6479 52.5498C36.6542 53.2758 36.8205 53.991 37.1343 54.6419C37.4452 55.2512 37.9231 55.754 38.5091 56.0884C39.1519 56.442 39.8546 56.6664 40.5795 56.7494C40.9646 56.801 41.3523 56.8291 41.7407 56.8335C42.1228 56.8389 42.5048 56.8191 42.8845 56.7743C43.6266 56.6829 44.3502 56.4727 45.0288 56.1512C46.3702 55.5067 47.4689 54.3848 48.2811 53.0379C48.4855 52.6992 48.6729 52.35 48.8426 51.9918C49.0066 51.6436 49.1479 51.2847 49.2655 50.9173C49.4978 50.1894 49.63 49.4318 49.6583 48.6664C49.6875 47.9082 49.6073 47.1497 49.4203 46.4155C49.2332 45.6893 48.9408 44.996 48.5526 44.3589C47.7901 43.0961 46.6347 42.1246 45.2772 41.4719C44.5878 41.1427 43.8679 40.8856 43.1282 40.7042C42.3839 40.5181 41.6242 40.4031 40.8591 40.3607C40.7713 40.3607 40.6731 40.3536 40.6073 40.3536C40.5969 40.3536 40.6558 40.3536 40.6073 40.3536H40.5714H40.4998L40.3577 40.363L40.0735 40.382L39.7754 40.4092C39.5767 40.4258 39.3803 40.4507 39.1839 40.4756C38.9875 40.5005 38.791 40.5301 38.5958 40.5597C37.823 40.6813 37.0599 40.8611 36.3128 41.0975C34.8503 41.552 33.4803 42.2744 32.2691 43.2299C31.0748 44.1978 30.0653 45.3839 29.2917 46.7283C28.5038 48.0661 27.9559 49.5378 27.6742 51.0737C27.3948 52.608 27.3818 54.181 27.6361 55.72C27.8829 57.2571 28.3955 58.7367 29.1496 60.089C29.8916 61.439 30.875 62.6334 32.0484 63.6099C33.2419 64.5861 34.5918 65.3421 36.0378 65.8442C37.5114 66.358 39.048 66.6571 40.6026 66.7327C40.7944 66.741 40.9851 66.7457 41.1711 66.7457C41.3571 66.7457 41.4992 66.7398 41.7268 66.7268L42.3484 66.6924L42.9549 66.6415C43.7637 66.5668 44.5655 66.4626 45.3558 66.318C46.9218 66.0358 48.4506 65.5679 49.9113 64.9237C50.626 64.5997 51.3188 64.2273 51.9852 63.8089C52.3179 63.6028 52.6368 63.3765 52.9522 63.1443C53.1093 63.0258 53.2642 62.9074 53.4144 62.7889C53.5646 62.6704 53.7194 62.5425 53.8638 62.411C55.0578 61.3781 56.0767 60.1495 56.8793 58.7752C57.703 57.3698 58.3439 55.86 58.7856 54.2841C59.2224 52.7234 59.4173 51.1019 59.3633 49.4791C59.3311 48.6812 59.2271 47.888 59.0525 47.1097C59.0132 46.9238 58.9566 46.7081 58.9058 46.502C58.8549 46.2959 58.8006 46.0897 58.7463 45.8848C58.692 45.6798 58.6308 45.4773 58.5788 45.2735C58.5268 45.0697 58.4633 44.8695 58.4009 44.6693C57.9179 43.0676 57.3091 41.5477 56.4633 40.2055C55.6065 38.8624 54.5134 37.6946 53.2399 36.7616C53.077 36.6432 52.9176 36.5247 52.7523 36.4062L52.2509 36.071L51.7333 35.7547C51.5612 35.6492 51.3798 35.5533 51.2042 35.4526C50.4846 35.0571 49.7462 34.6988 48.9917 34.3792C47.4523 33.7326 45.8762 33.1819 44.272 32.7302L44.8428 30.5693Z" fill="#C16E23"/>
<path d="M22.3319 47.599C22.2556 47.5793 22.184 47.5442 22.1211 47.4958C22.0582 47.4474 22.0054 47.3866 21.9657 47.317C21.926 47.2474 21.9002 47.1704 21.8899 47.0904C21.8796 47.0105 21.8849 46.9293 21.9055 46.8515C21.9171 46.8065 21.9298 46.7626 21.9414 46.7164C22.0072 46.4795 22.0765 46.2426 22.1505 46.0056C22.2961 45.5317 22.4566 45.0697 22.6276 44.6089C22.9757 43.6872 23.3714 42.7852 23.813 41.9066C24.2556 41.0237 24.7494 40.1688 25.2919 39.3466C25.4305 39.1416 25.5634 38.9331 25.7078 38.7329L26.1422 38.1311C26.4449 37.7401 26.7476 37.3468 27.0746 36.9737C27.7237 36.2185 28.4266 35.5136 29.1773 34.8649C29.93 34.2075 30.735 33.6159 31.5839 33.0962L31.9005 32.8984L32.2286 32.7183C32.4481 32.5998 32.6653 32.4814 32.8872 32.3629L33.5631 32.0442C33.6786 31.9933 33.7872 31.9341 33.9039 31.889L34.2505 31.7516C34.4816 31.6628 34.7126 31.5644 34.9437 31.4839L35.6531 31.2552C35.7686 31.2185 35.8842 31.1759 36.0101 31.1439L36.3706 31.0527L37.0938 30.8738L37.5086 32.9268C36.6479 33.1318 35.7837 33.3426 34.961 33.6755L34.6491 33.794C34.544 33.8307 34.4458 33.8817 34.3429 33.9243L33.7341 34.192C33.5342 34.2892 33.3378 34.3946 33.139 34.4953L32.8479 34.6446L32.5591 34.814C31.784 35.2608 31.0439 35.7686 30.3454 36.3328C29.642 36.8995 28.9809 37.5192 28.3674 38.1868C27.1161 39.5334 26.0255 41.0279 25.1186 42.6388C24.6565 43.4474 24.2357 44.2802 23.8581 45.1337C23.6675 45.5602 23.4861 45.9914 23.3208 46.4285C23.2365 46.6453 23.1568 46.8657 23.0805 47.0849C23.0655 47.1275 23.0505 47.1713 23.0343 47.2152C22.9856 47.3557 22.8877 47.4728 22.7597 47.5437C22.6316 47.6146 22.4825 47.6343 22.3411 47.599H22.3319Z" fill="#C16E23"/>
<path d="M15.6424 34.2549L15.2207 35.3211C15.0982 35.6252 15.0598 35.958 15.1098 36.283C15.1597 36.6079 15.296 36.9125 15.5037 37.1633C15.5107 37.1715 15.5176 37.1787 15.5234 37.187C16.1842 37.9534 19.0541 41.0217 19.0541 41.0217C19.0541 41.0217 20.3481 42.6957 21.1673 42.0086C21.1849 41.9928 21.1977 41.9723 21.2043 41.9493L21.8201 39.8797C21.8201 39.8797 21.9056 39.3442 22.4058 39.5125C22.5118 39.5491 22.6004 39.6252 22.6542 39.7257C22.8079 40.0053 23.188 40.6249 23.4734 40.4863C23.8385 40.3086 23.9771 39.4201 23.3682 38.9166L22.7178 38.3894C22.7058 38.3797 22.6959 38.3677 22.6884 38.354C22.681 38.3404 22.6763 38.3253 22.6746 38.3098C22.6729 38.2943 22.6742 38.2786 22.6784 38.2636C22.6827 38.2486 22.6898 38.2345 22.6993 38.2224C22.8379 38.0435 23.0621 37.6205 22.5341 37.187C22.5341 37.187 21.9206 36.3494 21.4573 36.8623C21.4374 36.8859 21.4093 36.9004 21.379 36.9029C21.3487 36.9053 21.3188 36.8954 21.2955 36.8754L19.7508 35.5106C19.7508 35.5106 19.3672 35.2251 18.7942 35.7239L17.9924 36.3624C17.9771 36.3744 17.9651 36.3901 17.9573 36.4082C17.9495 36.4262 17.9461 36.4459 17.9476 36.4655C17.9491 36.4851 17.9554 36.5041 17.9658 36.5206C17.9762 36.5372 17.9905 36.5508 18.0074 36.5603L20.3424 37.8824C20.3424 37.8824 20.9859 38.2378 20.7075 38.8633C20.534 39.2703 20.3993 39.6936 20.3054 40.1273C20.2998 40.1528 20.2887 40.1767 20.2729 40.1972C20.2571 40.2177 20.237 40.2343 20.2141 40.2458H20.2083C20.1624 40.2656 20.1123 40.2732 20.0627 40.2678C20.0131 40.2625 19.9657 40.2444 19.9248 40.2152C19.8838 40.186 19.8508 40.1466 19.8287 40.1008C19.8065 40.055 19.796 40.0042 19.7982 39.9532C19.7982 39.8086 19.7277 39.548 19.3499 39.1618C19.3499 39.1618 16.3934 35.6836 16.2547 35.0948C16.1851 34.7726 16.0409 34.4723 15.8342 34.2193C15.821 34.2047 15.8044 34.1937 15.786 34.1874C15.7676 34.1811 15.7479 34.1796 15.7288 34.1832C15.7097 34.1867 15.6917 34.1951 15.6766 34.2077C15.6615 34.2202 15.6497 34.2364 15.6424 34.2549Z" fill="#C16E23"/>
<path d="M23.761 31.5538L25.174 32.2137L24.0117 34.1092C23.8897 34.3131 23.7138 34.4774 23.5045 34.583C23.2076 34.7288 22.8194 34.7975 22.7165 34.2442C22.6687 33.973 22.7093 33.6933 22.8321 33.4481L23.761 31.5538Z" fill="#C16E23"/>
<path d="M29.1762 22.3678L29.2201 24.0263C29.2201 24.0577 29.2079 24.0879 29.1862 24.1101C29.1646 24.1323 29.1352 24.1448 29.1045 24.1448C28.5269 24.159 25.9724 24.2858 25.9724 25.4005C25.9724 26.2298 27.5494 26.3198 28.6297 26.2855C29.2154 26.2665 29.7354 26.3104 30.2807 26.6065C30.9508 26.9714 31.2674 27.7426 31.257 28.6477C31.2393 29.5589 30.8993 30.4325 30.3003 31.1059C29.9877 31.4842 29.5883 31.7769 29.138 31.9577C27.353 32.601 27.2155 32.4316 27.2155 32.4316C27.2155 32.4316 26.9336 32.415 26.9336 31.8392C26.9336 31.4945 26.9406 31.1024 26.9452 30.8406C26.9465 30.7598 26.9769 30.6825 27.0304 30.6232C27.0839 30.564 27.1568 30.5271 27.2352 30.5195L28.3304 30.4117C28.6995 30.3879 29.0505 30.2396 29.3288 29.99C29.6072 29.7404 29.7972 29.4034 29.8694 29.0316C29.8879 28.9302 29.8718 28.8254 29.8238 28.7348C29.7758 28.6442 29.6989 28.5733 29.606 28.534C29.1967 28.3782 28.7646 28.2945 28.3281 28.2864C27.085 28.2177 25.5091 28.2402 25.1139 26.757C24.6171 24.8888 25.2133 23.1899 26.423 22.7137C27.3657 22.3429 28.6724 22.2481 29.0629 22.2529C29.0926 22.2534 29.1209 22.2657 29.142 22.2871C29.163 22.3085 29.1753 22.3374 29.1762 22.3678Z" fill="#C16E23"/>
<path d="M37.0696 25.9847C37.0696 25.9847 36.7368 25.6293 36.2608 26.3993C36.0732 26.7128 35.8178 26.9778 35.5145 27.1741C35.4012 27.2483 35.2703 27.2894 35.1359 27.2929C35.0015 27.2965 34.8688 27.2624 34.7519 27.1942C34.6827 27.1549 34.6237 27.0991 34.5801 27.0314C34.5364 26.9638 34.5094 26.8863 34.5012 26.8056C34.4905 26.6875 34.516 26.5688 34.5742 26.4662C34.6324 26.3637 34.7204 26.2823 34.8259 26.2334C35.4209 25.9491 36.8859 25.1447 36.82 24.1437C36.7368 22.8879 36.4156 22.1546 35.3365 22.3027C34.7367 22.3879 34.176 22.6571 33.728 23.0748C33.28 23.4926 32.9655 24.0394 32.826 24.6436C32.4793 26.0119 32.1732 27.1006 33.3759 28.3765C34.3083 29.3657 35.3724 28.6561 35.8021 28.2865C35.9408 28.168 36.0794 28.0495 36.2227 27.9382C36.6767 27.5899 37.6103 26.7334 37.0696 25.9847ZM34.3961 24.4339C34.5301 23.9991 34.812 23.703 35.0234 23.7717C35.2349 23.8404 35.2984 24.2456 35.1632 24.6839C35.0281 25.1222 34.7485 25.4148 34.5359 25.3461C34.3233 25.2774 34.2597 24.8687 34.3961 24.4339Z" fill="#C16E23"/>
<path d="M44.2997 24.1756C44.7214 24.0026 45.224 23.158 44.9536 22.5739C44.6833 21.9899 43.9832 20.9284 43.2645 22.228C43.2645 22.228 42.7157 20.9829 41.6609 21.946C41.6609 21.946 38.3462 24.8686 39.0221 26.2002C39.0221 26.2002 39.3063 27.206 40.4674 27.6822C41.6285 28.1585 42.6002 25.9514 42.6002 25.9514C42.6002 25.9514 42.4731 27.6822 43.075 27.5957C43.677 27.5093 44.2778 27.4441 44.3841 26.9679C44.458 26.6302 44.2685 26.5485 44.153 26.5295C44.1285 26.5251 44.106 26.5127 44.0889 26.4941C44.0719 26.4756 44.0611 26.4518 44.0582 26.4265L43.9011 25.0309C43.9011 25.0309 43.8769 24.3486 44.2997 24.1756ZM41.989 25.3058C41.2808 26.4573 41.1075 25.9467 41.1075 25.9467C40.7759 24.8746 41.885 23.6721 42.4384 23.1544C42.4699 23.1252 42.5086 23.1054 42.5503 23.0972C42.592 23.089 42.6351 23.0928 42.6749 23.1081C42.7146 23.1234 42.7495 23.1496 42.7757 23.1839C42.8018 23.2182 42.8183 23.2592 42.8232 23.3025C42.9121 23.9825 42.5875 24.3296 41.9879 25.3058H41.989Z" fill="#C16E23"/>
<path d="M51.5173 23.6639C51.5173 23.6639 52.1019 24.2195 51.4953 24.7301C51.3765 24.835 51.2414 24.9187 51.0956 24.9777C50.9857 25.016 50.867 25.0187 50.7556 24.9855C50.6441 24.9522 50.5454 24.8845 50.4728 24.7917L49.9864 24.1994C49.9199 24.1141 49.8374 24.0434 49.7437 23.9915C49.65 23.9396 49.5471 23.9076 49.4411 23.8973C49.2586 23.8842 49.0852 23.9423 49.113 24.2278C49.1308 24.378 49.1985 24.5173 49.3048 24.6223L50.0869 25.4243C50.0869 25.4243 50.9974 26.6019 49.827 27.5792C48.5561 28.6454 48.0708 28.4689 48.0708 28.4689C48.0708 28.4689 46.8785 28.2912 46.25 27.379C46.25 27.379 45.774 26.8234 46.25 26.3792C46.25 26.3792 46.7919 25.602 47.4054 26.0901L48.2499 26.9348C48.2499 26.9348 48.5538 27.3127 48.8357 27.1125C48.8852 27.0736 48.9238 27.022 48.9477 26.963C48.9717 26.9039 48.98 26.8394 48.972 26.776C48.9608 26.5837 48.8781 26.4031 48.741 26.2714C48.3632 25.8994 47.3615 24.8059 47.767 24.0347C47.767 24.0347 49.3983 21.7838 50.4821 22.7316C51.4468 23.5857 51.5173 23.6639 51.5173 23.6639Z" fill="#C16E23"/>
<path d="M67.3132 39.1346C67.3132 39.1346 67.3617 39.9508 66.5784 39.8904C66.4221 39.8819 66.2682 39.8467 66.1232 39.7861C66.0183 39.7356 65.931 39.6533 65.8729 39.5504C65.8149 39.4475 65.7889 39.3288 65.7985 39.2104L65.8505 38.4332C65.8597 38.3246 65.8476 38.2151 65.8149 38.1113C65.7821 38.0076 65.7294 37.9116 65.6599 37.829C65.5363 37.6893 65.3711 37.6087 65.1978 37.829C65.1092 37.95 65.0639 38.0985 65.0695 38.2496L65.0938 39.3833C65.0938 39.3833 64.9575 40.8796 63.4532 40.7564C61.8195 40.6225 61.585 40.1546 61.585 40.1546C61.585 40.1546 60.8444 39.1808 61.0073 38.0766C61.0073 38.0766 61.0373 37.3374 61.682 37.354C61.682 37.354 62.5982 37.1763 62.7068 37.9594L62.7473 39.1689C62.7473 39.1689 62.7126 39.657 63.0511 39.7127C63.1132 39.7194 63.1759 39.7094 63.2331 39.6837C63.2902 39.6579 63.3398 39.6172 63.3769 39.5658C63.4991 39.4192 63.5612 39.2299 63.5502 39.0374C63.5283 38.5008 63.5421 37.001 64.359 36.7308C64.359 36.7308 67.059 36.257 67.1977 37.7177C67.3155 39.0279 67.3132 39.1346 67.3132 39.1346Z" fill="#C16E23"/>
<path d="M57.1842 26.2879C56.8512 26.2359 56.5405 26.0842 56.2911 25.8519C56.1974 25.7628 56.0864 25.6951 55.9653 25.653C55.8443 25.6109 55.7159 25.5956 55.5887 25.6079C54.9428 25.6718 53.6673 25.9704 52.4092 27.2605C50.9003 28.8077 52.0822 30.022 52.4866 30.3631C52.5601 30.4248 52.6506 30.4613 52.7454 30.4674C56.6042 30.6795 58.1547 28.1099 58.1905 27.1669C58.2137 26.5686 57.6256 26.3601 57.1842 26.2879ZM56.2911 27.0401C56.1433 27.7107 55.643 28.5731 54.2184 29.1346C54.1029 29.182 53.9874 29.2365 53.8718 29.2922C53.7707 29.3488 53.6586 29.3819 53.5436 29.389C53.4286 29.3962 53.3134 29.3773 53.2064 29.3337C52.8678 29.1666 55.2421 27.2226 55.7031 26.8459C55.7813 26.7802 55.8685 26.7268 55.9619 26.6871C56.1433 26.6148 56.3928 26.5888 56.2911 27.0401Z" fill="#C16E23"/>
<path d="M60.3233 29.7613L60.1592 29.9154C59.4229 30.5919 58.5573 31.1039 57.6175 31.4187C57.1553 31.5798 56.6932 31.9648 56.5927 32.8403C56.3835 34.7014 58.685 32.9588 58.685 32.9588C58.685 32.9588 60.6041 31.6663 61.6797 32.2586C61.6797 32.2586 62.2019 32.6531 61.0777 32.9694C59.9536 33.2858 58.5579 34.4147 58.5579 34.4147C58.5579 34.4147 58.0484 34.9016 58.8583 35.34C59.6682 35.7783 59.6208 36.11 60.4885 35.2689C61.102 34.6766 61.6127 34.4633 61.8576 34.3911C62.0803 34.3276 62.2984 34.2484 62.5104 34.1541C63.2567 33.82 64.508 33.0962 63.772 32.229C63.0083 31.331 62.2909 31.3666 61.9801 31.4412C61.8397 31.4773 61.6914 31.4622 61.5607 31.3986C61.3781 31.305 61.2303 31.145 61.6566 30.9365C62.3094 30.6179 62.2285 30.1262 61.6878 29.8703C61.6058 29.8297 61.5283 29.78 61.4567 29.7223C61.2982 29.58 61.0929 29.5049 60.8825 29.5122C60.672 29.5195 60.4721 29.6085 60.3233 29.7613Z" fill="#C16E23"/>
</g>
<defs>
<clipPath id="clip0_4_9">
<rect width="84" height="70" fill="white"/>
</clipPath>
</defs>
</svg>
