<svg width="1190" height="240" viewBox="0 0 1190 240" fill="none" xmlns="http://www.w3.org/2000/svg">
<rect width="240.725" height="239.564" rx="119.782" fill="#FFDE9F"/>
<path d="M134.428 168.564L82.2141 71L30 168.564H52.8891L82.1844 111.997L111.007 168.564H134.428Z" fill="white"/>
<path d="M171.029 98.3075L147.85 98.3025L111.495 168.564H134.384L171.029 98.3075Z" fill="white"/>
<path d="M71.2678 168.551H94.1568L101.231 155.047L90.1392 133.296L71.2678 168.551Z" fill="white"/>
<path d="M145.257 71H123.484L104.301 106.839L115.515 127.779L145.257 71Z" fill="white"/>
<path d="M171.282 71H123.484V92.759H171.282C181.049 92.759 188.966 100.676 188.966 110.443C188.966 120.209 181.049 128.126 171.282 128.126L158.215 128.126L146.946 149.885H171.282C193.066 149.885 210.725 132.226 210.725 110.443C210.725 88.659 193.066 71 171.282 71Z" fill="white"/>
<path d="M1129.32 163.005V76.5585H1187.44V94.2629H1149.47V110.502H1185.36V127.23H1149.47V145.178H1189.64V163.005H1129.32Z" fill="white"/>
<path d="M1091.09 163.005L1091.58 101.833H1091.22L1068.75 163.005H1054.1L1032.24 101.833H1031.88L1032.36 163.005H1012.71V76.5585H1042.38L1062.03 131.992H1062.52L1081.33 76.5585H1111.48V163.005H1091.09Z" fill="white"/>
<path d="M973.835 163.005V76.5585H994.836V163.005H973.835Z" fill="white"/>
<path d="M939.148 163.005L920.467 128.695H913.385V163.005H892.873V76.5585H925.839C929.991 76.5585 934.02 77.0062 937.927 77.9016C941.916 78.7156 945.457 80.1401 948.55 82.1751C951.724 84.2101 954.248 86.8963 956.12 90.2336C957.992 93.571 958.928 97.7224 958.928 102.688C958.928 108.549 957.341 113.473 954.166 117.462C950.992 121.45 946.596 124.299 940.98 126.009L963.568 163.005H939.148ZM938.293 103.054C938.293 101.019 937.846 99.3911 936.95 98.1701C936.136 96.8677 935.037 95.8909 933.654 95.2397C932.351 94.5071 930.845 94.0187 929.136 93.7745C927.508 93.5303 925.921 93.4082 924.374 93.4082H913.263V113.555H923.153C924.863 113.555 926.613 113.432 928.403 113.188C930.194 112.863 931.822 112.334 933.287 111.601C934.753 110.868 935.933 109.81 936.828 108.426C937.805 107.043 938.293 105.252 938.293 103.054Z" fill="white"/>
<path d="M880.339 103.176C880.339 108.223 879.403 112.496 877.531 115.997C875.659 119.415 873.136 122.183 869.961 124.299C866.786 126.416 863.123 127.962 858.972 128.939C854.821 129.916 850.507 130.404 846.03 130.404H835.651V163.005H814.772V76.5585H846.518C851.239 76.5585 855.635 77.0469 859.705 78.0237C863.856 78.9191 867.438 80.425 870.449 82.5414C873.543 84.5764 875.944 87.3033 877.653 90.722C879.444 94.0594 880.339 98.2108 880.339 103.176ZM859.46 103.298C859.46 101.263 859.053 99.5946 858.24 98.2922C857.426 96.9898 856.327 95.9723 854.943 95.2397C853.559 94.5071 851.972 94.0187 850.181 93.7745C848.472 93.5303 846.681 93.4082 844.809 93.4082H835.651V113.799H844.442C846.396 113.799 848.268 113.636 850.059 113.31C851.85 112.985 853.437 112.415 854.821 111.601C856.286 110.787 857.426 109.729 858.24 108.426C859.053 107.043 859.46 105.333 859.46 103.298Z" fill="white"/>
<path d="M773.254 163.005L738.456 106.473H738.09L738.578 163.005H718.309V76.5585H742.119L776.795 132.968H777.161L776.673 76.5585H796.941V163.005H773.254Z" fill="#FFDE9F"/>
<path d="M704.563 119.415C704.563 126.253 703.382 132.521 701.022 138.219C698.661 143.835 695.365 148.679 691.132 152.749C686.98 156.737 682.015 159.83 676.236 162.028C670.456 164.226 664.189 165.325 657.432 165.325C650.676 165.325 644.408 164.226 638.629 162.028C632.931 159.83 627.966 156.737 623.733 152.749C619.582 148.679 616.326 143.835 613.965 138.219C611.604 132.521 610.424 126.253 610.424 119.415C610.424 112.497 611.604 106.269 613.965 100.734C616.326 95.1177 619.582 90.3559 623.733 86.4487C627.966 82.5415 632.931 79.5297 638.629 77.4133C644.408 75.297 650.676 74.2388 657.432 74.2388C664.189 74.2388 670.456 75.297 676.236 77.4133C682.015 79.5297 686.98 82.5415 691.132 86.4487C695.365 90.3559 698.661 95.1177 701.022 100.734C703.382 106.269 704.563 112.497 704.563 119.415ZM682.219 119.415C682.219 115.671 681.608 112.171 680.387 108.915C679.166 105.659 677.457 102.891 675.259 100.612C673.142 98.2516 670.538 96.4201 667.444 95.1177C664.433 93.7339 661.095 93.042 657.432 93.042C653.769 93.042 650.432 93.7339 647.42 95.1177C644.408 96.4201 641.804 98.2516 639.606 100.612C637.408 102.891 635.699 105.659 634.478 108.915C633.338 112.171 632.768 115.671 632.768 119.415C632.768 123.323 633.379 126.945 634.6 130.282C635.821 133.538 637.49 136.347 639.606 138.707C641.804 141.068 644.408 142.94 647.42 144.324C650.432 145.626 653.769 146.277 657.432 146.277C661.095 146.277 664.433 145.626 667.444 144.324C670.456 142.94 673.061 141.068 675.259 138.707C677.457 136.347 679.166 133.538 680.387 130.282C681.608 126.945 682.219 123.323 682.219 119.415Z" fill="#FFDE9F"/>
<path d="M584.2 94.385V163.005H563.321V94.385H538.901V76.5585H608.62V94.385H584.2Z" fill="white"/>
<path d="M513.49 163.005L494.564 132.48L476.371 163.005H451.463L481.744 117.34L453.905 76.5585H479.058L495.175 103.42L511.048 76.5585H535.345L507.995 117.34L539.253 163.005H513.49Z" fill="white"/>
<path d="M387.188 163.005V76.5585H445.307V94.2629H407.334V110.502H443.231V127.23H407.334V145.178H447.505V163.005H387.188Z" fill="white"/>
<path d="M345.67 163.005L310.871 106.473H310.505L310.993 163.005H290.725V76.5585H314.534L349.21 132.968H349.577L349.088 76.5585H369.357V163.005H345.67Z" fill="white"/>
</svg>
